<?xml version="1.0" encoding="UTF-8" standalone="no"?>
<!-- Created with Inkscape (http://www.inkscape.org/) -->

<svg
   version="1.1"
   id="svg1"
   width="486.3663"
   height="172.79715"
   viewBox="0 0 486.3663 172.79715"
   xmlns="http://www.w3.org/2000/svg"
   xmlns:svg="http://www.w3.org/2000/svg">
  <defs
     id="defs1" />
  <g
     id="g1"
     transform="translate(-104.03855,225.68046)">
    <g
       id="g5"
       transform="translate(78.857143,-270.88332)"
       style="fill:#000000">
      <path
         style="fill:#000000;fill-opacity:1"
         d="m 87.190973,215.25323 c 6.980036,-0.17166 18.680037,-0.17212 25.999997,-0.001 7.31997,0.17109 1.60903,0.31154 -12.69097,0.31211 -14.3,5.7e-4 -20.289062,-0.13941 -13.309027,-0.31107 z M 92.474093,130.5 c 9.3e-5,-39.6 0.124108,-55.654394 0.275589,-35.676432 0.151482,19.977962 0.151406,52.377962 -1.67e-4,72.000002 C 92.597941,186.44561 92.474001,170.1 92.474093,130.5 Z m 115.977297,34 c -3.2e-4,-19.8 0.13325,-28.04173 0.29682,-18.31497 0.16358,9.72677 0.16384,25.92677 5.9e-4,36 -0.16325,10.07324 -0.29708,2.11497 -0.29741,-17.68503 z"
         id="path7" />
      <path
         style="fill:#000000;fill-opacity:1"
         d="M 265.57143,216.42857 C 264.70714,215.56429 264,213.75964 264,212.41825 264,211.07686 272.325,176.68864 282.5,136 292.675,95.311356 301,60.692559 301,59.069341 c 0,-3.815868 -1.03265,-4.362769 -9.48226,-5.021904 -6.66533,-0.519946 -7.03301,-0.679118 -7.32184,-3.16969 -0.18341,-1.58165 0.26514,-2.840685 1.13032,-3.172689 2.61631,-1.003972 32.60794,-3.104236 33.37498,-2.337195 0.41426,0.414267 -5.16832,24.456683 -12.40575,53.427592 -7.23742,28.970905 -12.96478,52.868545 -12.72747,53.105865 1.27344,1.27343 12.90608,-8.70994 21.40356,-18.36897 18.3981,-20.91299 25.43312,-25.91242 36.57244,-25.99017 6.90374,-0.0482 10.42206,1.71414 13.50002,6.76215 4.80851,7.88618 -0.5523,18.69567 -9.27183,18.69567 -9.15748,0 -9.18177,-12.84178 -0.0315,-16.66499 3.27215,-1.3672 3.36855,-1.53759 1.61931,-2.86257 -2.81846,-2.13486 -10.77901,-1.80518 -15.64979,0.64814 -6.62264,3.3357 -11.43174,7.72964 -22.64341,20.68866 -5.73829,6.63261 -12.6331,13.73692 -15.32181,15.78735 l -4.88857,3.72807 8.32182,2.39655 C 327.75312,162.64647 334.24441,172.3241 329.5,190 c -2.43437,9.06954 -2.01312,18.57779 0.95455,21.54545 2.96145,2.96146 5.96642,3.10499 10.25543,0.48985 5.47901,-3.34073 8.56603,-9.33513 13.31019,-25.84589 1.98806,-6.91891 2.24472,-7.29396 4.79022,-7 3.3388,0.38556 3.2846,1.97381 -0.46857,13.72939 C 353.27399,208.79214 344.61512,218 334.75599,218 c -14.30062,0 -22.20075,-13.24349 -18.76432,-31.45585 2.63511,-13.96553 -5.35172,-24.20859 -21.09961,-27.06013 l -3.60794,-0.6533 -6.81836,27.30639 C 277.09716,215.64716 276.0376,218 270.11688,218 c -1.63571,0 -3.68117,-0.70714 -4.54545,-1.57143 z M 65.000083,212.89361 C 65,210.28946 65.008796,210.28677 75.25,209.75139 c 12.431907,-0.64991 15.404912,-1.82891 16.809435,-6.6661 0.691033,-2.37993 0.940085,-27.56652 0.740793,-74.91617 C 92.505678,58.18724 92.462176,56.809724 90.5,55.330609 87.165799,52.817244 55.374551,53.983758 47.827723,56.89638 35.725042,61.567287 33.010458,67.52695 29.446936,97.25 c -0.468711,3.90948 -0.926602,4.75 -2.587664,4.75 -1.662011,0 -1.925711,-0.48532 -1.49421,-2.75 0.288186,-1.5125 1.302964,-13.6625 2.255063,-27 L 29.351215,48 H 100.67561 172 v 2.759946 c 0,3.049585 2.61742,37.689685 3.47503,45.990054 0.48695,4.71292 0.34431,5.25 -1.39434,5.25 -1.61969,0 -2.03769,-0.94139 -2.55314,-5.75 -2.86754,-26.750954 -6.62612,-34.828791 -18.30171,-39.33358 -8.00376,-3.088087 -39.82075,-4.178648 -42.54126,-1.458146 -1.57062,1.570624 -1.67821,7.227346 -1.44097,75.761716 l 0.25639,74.06436 2.56878,1.91778 c 2.02793,1.51399 4.92299,2.04197 13.75,2.50763 L 137,210.29962 l 6e-5,2.60019 6e-5,2.60019 H 101.00015 65.000165 Z M 192,212.88889 c 0,-2.47086 0.3298,-2.64102 6.1401,-3.16788 10.83323,-0.98232 10.30418,0.94708 10.6932,-38.99751 0.49603,-50.93359 0.17437,-52.66675 -9.96331,-53.68443 -5.1802,-0.52002 -5.36999,-0.6451 -5.36999,-3.53907 0,-3.34466 -2.34283,-2.78248 20.75,-4.97905 l 6.75,-0.64205 0.0153,48.81055 c 0.008,26.8458 0.37756,49.38127 0.82031,50.07882 1.0013,1.57755 6.58451,3.23173 10.90778,3.23173 2.88599,0 3.2566,0.31296 3.2566,2.75 v 2.75 h -22 -22 z m 203.66667,2.44444 C 395.3,214.96667 395,213.71241 395,212.5461 c 0,-1.16631 21.825,-37.37499 48.5,-80.46373 26.675,-43.088736 48.5,-78.509481 48.5,-78.712764 0,-0.806084 -47.85879,-0.299249 -53.11967,0.562549 -23.07076,3.77927 -33.13424,14.439894 -36.17149,38.317845 -0.96813,7.611088 -1.36554,8.75 -3.05325,8.75 -1.83894,0 -1.90746,-0.56125 -1.31227,-10.75 0.34538,-5.9125 0.92603,-18.066311 1.29033,-27.008469 L 400.296,46.983062 454.898,47.241531 509.5,47.5 l -0.0153,3 c -0.0112,2.201647 -12.45253,23.035207 -46.75118,78.28698 -25.70476,41.40784 -47.48192,76.42552 -48.39369,77.81707 l -1.65777,2.53008 30.40895,-0.35795 c 28.11309,-0.33092 30.90612,-0.52392 36.99408,-2.55632 16.12803,-5.38417 23.59253,-16.30598 25.97704,-38.00873 C 507.80148,152.38061 507.89276,152 509.95016,152 c 1.55062,0 1.79552,0.62296 1.47424,3.75 -0.21192,2.0625 -0.84942,13.65 -1.41668,25.75 -0.56726,12.1 -1.28688,24.8125 -1.59915,28.25 l -0.56776,6.25 h -55.75374 c -30.66455,0 -56.05374,-0.3 -56.4204,-0.66667 z M 205.6563,71.867465 C 202.54618,70.059591 200.72005,64.378271 202.00127,60.496153 205.3512,50.345775 221,52.819972 221,63.5 c 0,7.194791 -8.95754,12.079656 -15.3437,8.367465 z"
         id="path6" />
    </g>
  </g>
</svg>
