<?xml version="1.0" encoding="UTF-8" standalone="no"?>
<!-- Created with Inkscape (http://www.inkscape.org/) -->

<svg
   version="1.1"
   id="svg1"
   width="731.97552"
   height="637.93988"
   viewBox="0 0 731.97551 637.93988"
   xml:space="preserve"
   xmlns="http://www.w3.org/2000/svg"
   xmlns:svg="http://www.w3.org/2000/svg"><defs
     id="defs1" /><g
     id="g1"
     transform="translate(-1818.3326,881.86555)"><path
       style="fill:#e74c2a;fill-opacity:1"
       d="m 2046.8061,-244.29241 c -30.0509,-2.82544 -56.8553,-22.23607 -69.0385,-49.99477 -0.9768,-2.22561 -2.0182,-4.85495 -2.3142,-5.84299 l -0.5382,-1.79643 -3.3879,0.23162 c -4.0776,0.27877 -12.9253,-0.51986 -18.7212,-1.68986 -6.8598,-1.38479 -13.9632,-3.89316 -20.8622,-7.36695 -28.6121,-14.40675 -46.2489,-43.02453 -46.2489,-75.0444 0,-12.74184 3.0845,-26.40711 8.3114,-36.82197 0.595,-1.18542 1.0183,-2.20645 0.9407,-2.26896 -0.077,-0.0625 -2.041,-0.3631 -4.3632,-0.66799 -32.1968,-4.2272 -59.8311,-28.26088 -69.0422,-60.0462 -2.1185,-7.31064 -3.0881,-14.58023 -3.0787,-23.08377 0.02,-17.7898 4.6411,-32.89949 14.545,-47.5544 l 3.3097,-4.89738 -2.4637,-3.43389 c -16.1281,-22.47919 -20.001,-52.4002 -10.1428,-78.36034 8.8176,-23.21974 27.8074,-41.70659 51.0854,-49.73225 5.0959,-1.75691 14.8313,-4.02173 17.2876,-4.02173 0.6415,0 1.1664,-0.096 1.1664,-0.21329 0,-0.11731 -0.8128,-2.2535 -1.8063,-4.74709 -4.1822,-10.4976 -5.9714,-21.09278 -5.6167,-33.26185 0.3267,-11.214 1.9075,-18.93866 5.9572,-29.11111 6.3284,-15.89603 19.1562,-31.01419 34.1439,-40.24006 7.5895,-4.67179 18.0665,-8.76794 27.1181,-10.60227 5.2694,-1.06784 14.8206,-1.93032 19.2598,-1.73916 l 3.1827,0.13705 1.4958,-3.63133 c 10.7937,-26.20323 33.9351,-45.23381 61.821,-50.83924 6.9802,-1.40309 20.3771,-1.71075 27.9076,-0.64088 37.5832,5.33949 66.6641,34.7966 71.6516,72.57866 0.5806,4.39834 0.6631,34.32834 0.6631,240.75501 0,207.95377 -0.079,236.33714 -0.6729,240.86542 -2.536,19.34529 -10.7675,35.78856 -24.7231,49.38716 -7.5629,7.36929 -13.6581,11.64054 -22.8263,15.9956 -13.4961,6.41093 -28.9489,9.11517 -44,7.70004 z m 254.8058,-4.15701 c -3.3315,-0.91756 -5.9962,-2.39281 -8.5683,-4.74355 -4.802,-4.38875 -6.9041,-9.19182 -6.9041,-15.77517 0,-9.26754 5.3966,-16.74029 14.2462,-19.72671 2.3984,-0.80938 3.6299,-0.94087 7.5634,-0.80751 4.3686,0.14812 4.9335,0.27545 8.0452,1.81335 8.8598,4.37875 13.4643,13.86314 11.427,23.53761 -1.5699,7.45487 -8.153,14.17772 -15.5537,15.88386 -2.6394,0.60848 -7.7127,0.51851 -10.2557,-0.18188 z m 64.2996,-10.78948 c -5.5626,-1.98193 -9.9365,-5.85126 -12.5174,-11.07345 -1.4386,-2.91068 -1.6347,-3.73135 -1.8222,-7.62386 -0.2239,-4.65162 0.3887,-7.7936 2.2196,-11.38234 1.2699,-2.48931 5.4208,-6.70781 8.1197,-8.25193 4.2366,-2.42399 10.442,-3.31637 15.2897,-2.1988 5.2646,1.21368 10.8022,5.42054 13.2973,10.10173 5.9373,11.13957 1.883,24.08385 -9.1966,29.36241 -3.1676,1.50911 -3.6974,1.62029 -8.2732,1.73622 -3.8051,0.0964 -5.3829,-0.0521 -7.1169,-0.66998 z m -144.3042,-15.70407 c -4.3537,-0.46143 -10.6554,-2.56742 -14.7348,-4.92423 -4.349,-2.51261 -11.0143,-9.28695 -13.4861,-13.70677 -12.0592,-21.56298 -0.9799,-48.37623 22.8079,-55.19798 4.6249,-1.32629 14.7813,-1.42899 19.2785,-0.19494 13.8426,3.79843 24.599,15.08264 27.5945,28.94848 0.8991,4.16197 0.6748,12.64711 -0.4465,16.88889 -4.8994,18.53423 -21.893,30.21311 -41.0135,28.18655 z m 195.8655,-33.0682 c -22.477,-4.18458 -36.0683,-27.33618 -28.8352,-49.11835 1.8373,-5.53311 4.3822,-9.5421 9.0574,-14.26812 4.8047,-4.85692 8.7882,-7.43831 14.3567,-9.30343 16.7146,-5.59846 34.4383,0.60782 44.0157,15.41293 3.9948,6.17543 5.8329,12.63217 5.8018,20.38084 -0.011,2.68889 -0.2753,6.08889 -0.5877,7.55555 -4.2501,19.95085 -23.8249,33.06099 -43.8087,29.34058 z m -101.1111,-30.42207 c -5.8453,-0.81211 -10.7417,-2.90288 -15.9183,-6.79714 -5.7177,-4.30137 -9.429,-9.97835 -11.2432,-17.19831 -1.3416,-5.3392 -1.0569,-12.962 0.6737,-18.03417 3.4104,-9.99583 12.3307,-18.3451 22.2656,-20.84025 9.2321,-2.31865 19.1535,-0.53757 26.5982,4.77489 6.4479,4.60112 11.4851,12.11319 13.0077,19.3987 1.0576,5.06016 0.6661,12.51942 -0.8979,17.11111 -3.4423,10.10605 -12.6413,18.63258 -22.4858,20.84208 -3.7781,0.84796 -8.9431,1.1678 -12,0.74309 z m -98.2222,-41.41002 c -3.9284,-0.59693 -11.5949,-3.21093 -15.1111,-5.15234 -13.8769,-7.66188 -23.0762,-21.03342 -25.3179,-36.80059 -1.3835,-9.73108 0.902,-21.67661 5.7778,-30.19834 11.7586,-20.55137 35.6043,-29.72464 58.2067,-22.39172 11.5849,3.75848 22.473,13.28537 28.1036,24.59006 9.5552,19.18447 5.3792,42.45632 -10.2672,57.21634 -5.8988,5.56468 -13.3497,9.68898 -21.1697,11.71812 -3.5491,0.92092 -5.7427,1.18389 -10.8889,1.30534 -3.5444,0.0837 -7.7444,-0.0454 -9.3333,-0.28687 z m 259.5555,-13.20372 c -6.8454,-1.7893 -12.6544,-7.22803 -14.6619,-13.72736 -2.4826,-8.03772 -0.171,-16.68969 5.9312,-22.19954 11.5744,-10.45083 30.3348,-4.81018 34.2717,10.30434 1.8884,7.25006 -0.2031,14.93991 -5.5054,20.24224 -5.3146,5.31459 -12.6997,7.29778 -20.0356,5.38032 z m -98.2296,-19.14032 c -10.5874,-2.85892 -19.0782,-10.63645 -22.4255,-20.54169 -1.7832,-5.27667 -2.0848,-12.81535 -0.7286,-18.21248 2.8339,-11.27794 10.8525,-19.60753 22.2726,-23.13641 4.2923,-1.32634 12.4333,-1.45318 16.8889,-0.26314 9.7533,2.60501 18.1987,10.10162 21.8933,19.43372 2.1717,5.48555 2.7255,12.73842 1.4421,18.88889 -2.3111,11.07606 -11.8829,20.90555 -23.1679,23.79179 -4.4503,1.13818 -12.0371,1.15663 -16.1749,0.0393 z m 76.2938,-51.84447 c -14.9434,-2.83011 -26.9758,-14.90962 -29.8078,-29.92463 -3.8142,-20.22281 9.1619,-39.75406 29.2992,-44.10039 4.2129,-0.9093 12.6622,-0.69059 16.8889,0.43717 14.3891,3.83924 25.2342,15.35306 27.8028,29.51702 0.7163,3.94953 0.6052,11.58912 -0.2203,15.14829 -1.603,6.91207 -4.5927,12.5344 -9.3008,17.49081 -7.4475,7.84034 -15.5474,11.54321 -26.0595,11.91311 -3.3821,0.11901 -6.2922,-0.0438 -8.6025,-0.48138 z m -155.8419,-3.94488 c -5.2274,-1.17703 -9.4653,-3.96279 -12.6879,-8.3404 -4.7923,-6.50985 -5.079,-16.86854 -0.6519,-23.55221 4.5957,-6.93822 13.0354,-10.68356 21.0418,-9.33788 10.2137,1.71668 17.6313,10.44389 17.6313,20.74429 0,10.04505 -7.282,18.83951 -17.0816,20.62942 -3.262,0.59581 -5.1122,0.5637 -8.2517,-0.14322 z m -79.153,-41.18483 c -18.5607,-1.96967 -34.6765,-14.79031 -40.6977,-32.37631 -4.3404,-12.67727 -3.5451,-25.72891 2.2906,-37.59173 7.1152,-14.46349 19.8372,-23.95904 35.7823,-26.70741 5.897,-1.01644 14.2388,-0.6561 20.1232,0.86927 13.6702,3.54358 25.5856,13.2463 31.6434,25.7671 6.6401,13.7244 6.65,29.17261 0.027,42.73771 -2.7955,5.72606 -4.7845,8.50902 -9.4582,13.23377 -7.9623,8.04917 -18.1603,12.92002 -29.483,14.08195 -4.9405,0.50699 -5.3202,0.50646 -10.228,-0.0144 z m 146.4863,-18.47285 c -4.6265,-0.9734 -10.5152,-4.01637 -14.5675,-7.52771 -16.9527,-14.68963 -13.2612,-42.45218 6.9724,-52.43792 18.967,-9.36062 41.5455,1.54831 45.779,22.11837 1.7337,8.42429 0.2121,16.66207 -4.4207,23.93341 -7.0757,11.10536 -20.6074,16.68178 -33.7632,13.91385 z m 157.1111,-18.65247 c -3.8707,-1.03614 -6.1417,-2.33806 -9.3381,-5.35337 -13.0342,-12.29578 -5.7293,-33.68915 12.2814,-35.96749 3.063,-0.38747 7.9471,0.49246 11.1555,2.00979 10.4642,4.94879 14.8425,17.75825 9.6762,28.30973 -4.3249,8.83321 -14.4214,13.50514 -23.775,11.00134 z m -69.0401,-40.61131 c -8.6711,-1.57772 -15.2936,-5.18087 -21.4665,-11.67931 -3.9042,-4.11004 -6.3658,-8.19538 -8.1358,-13.50186 -7.1231,-21.35606 5.4873,-43.8393 27.4246,-48.89557 4.081,-0.94062 11.9107,-1.03208 15.8845,-0.18556 6.9602,1.48269 12.9518,4.73605 18.3832,9.98177 5.1897,5.01226 8.0264,9.65642 10.1269,16.57914 1.0355,3.41266 1.1911,4.712 1.2141,10.13665 0.032,7.50484 -0.6256,10.48151 -3.7297,16.88889 -3.7685,7.779 -9.3086,13.31712 -17.1056,17.09946 -2.4445,1.1858 -5.7445,2.48407 -7.3334,2.88505 -3.3865,0.85462 -12.1766,1.25279 -15.2623,0.69134 z m -150.8053,-14.86244 c -7.5043,-1.82028 -13.5382,-7.73284 -15.4733,-15.16229 -3.7947,-14.56895 8.6902,-28.44087 23.4298,-26.03273 4.6971,0.76741 8.3348,2.62762 11.5953,5.92947 4.3022,4.35684 6.0401,8.68093 6.0605,15.07921 0.043,13.35937 -12.6184,23.33819 -25.6123,20.18634 z m -85.2568,-36.27771 c -13.9093,-2.1884 -26.2075,-9.91273 -33.6812,-21.15479 -18.3017,-27.52963 -4.7099,-64.95542 26.9181,-74.12086 18.7463,-5.43248 39.2874,0.95059 51.3624,15.96073 15.9054,19.77158 14.5049,47.54005 -3.2989,65.40902 -8.8856,8.91813 -20.1697,13.77759 -32.8649,14.15313 -3.1777,0.094 -6.9737,-0.0173 -8.4355,-0.24723 z m 155.985,-15.73797 c -6.5518,-1.19064 -11.9648,-4.11828 -17.2936,-9.35329 -4.0083,-3.93776 -6.1238,-7.46094 -7.8726,-13.11111 -1.3439,-4.34227 -1.4567,-12.86757 -0.2292,-17.33333 3.0516,-11.10232 11.8256,-19.81539 22.8933,-22.73428 4.3526,-1.14793 11.4685,-1.23703 15.8415,-0.19836 1.7111,0.40641 4.8111,1.57247 6.8889,2.59123 3.1073,1.52351 4.53,2.60568 8.0155,6.09685 3.0364,3.0413 4.6991,5.13218 5.8652,7.3757 5.2285,10.05853 4.9064,22.01303 -0.858,31.84855 -1.9609,3.34572 -6.629,8.14163 -10.0465,10.32161 -6.684,4.26367 -15.2992,5.93305 -23.2045,4.49643 z m 116.4447,-26.35156 c -5.6483,-2.0125 -9.8983,-5.77415 -12.5224,-11.08363 -1.6914,-3.42243 -1.694,-3.43593 -1.694,-9.02921 0,-5.57224 0.01,-5.61927 1.6584,-8.95719 3.7143,-7.51532 10.7814,-11.95152 18.9906,-11.92083 5.6402,0.0211 10.0775,1.76237 14.1875,5.56751 10.8247,10.02179 8.1463,27.71647 -5.1935,34.30931 -3.204,1.58352 -3.6193,1.6731 -8.2858,1.78747 -3.8214,0.0937 -5.4077,-0.0559 -7.1408,-0.67343 z m -58.883,-50.97479 c -15.1152,-3.20213 -26.5604,-14.63792 -29.5777,-29.55328 -0.9932,-4.91012 -0.6907,-13.04072 0.6596,-17.72477 3.1887,-11.06162 11.9549,-20.83431 22.1618,-24.70643 5.5683,-2.11243 8.6414,-2.58635 15.4229,-2.37851 5.488,0.16819 6.7205,0.3558 10.4445,1.58978 11.7844,3.90491 21.0237,13.52296 24.4666,25.46983 1.3575,4.71056 1.6623,12.82766 0.6665,17.7501 -2.8274,13.97681 -13.6348,25.4603 -27.3554,29.06663 -3.8988,1.02478 -13.0975,1.28984 -16.8888,0.48665 z m -116.8889,-3.55252 c -6.0522,-1.28238 -10.3297,-3.44623 -15.4373,-7.80923 -11.1312,-9.50835 -13.8816,-27.03623 -6.2608,-39.89813 2.1547,-3.63653 7.1413,-8.71852 10.763,-10.9689 5.0155,-3.11639 9.2418,-4.34966 15.7361,-4.59193 6.3179,-0.23569 9.9153,0.4307 14.9767,2.77432 6.3559,2.943 12.3161,8.80844 15.2965,15.05326 4.2477,8.90039 4.1528,19.11248 -0.2631,28.29953 -1.7446,3.62962 -2.6007,4.78934 -6.0994,8.26293 -6.2957,6.25032 -12.4954,8.95027 -21.3784,9.31019 -2.7705,0.11225 -5.5325,-0.0505 -7.3333,-0.43204 z m -97.3334,-35.57883 c -13.721,-2.73785 -24.5176,-12.7982 -28.7264,-26.76744 -1.6084,-5.33844 -1.7341,-14.05881 -0.2806,-19.46148 3.5043,-13.0254 12.817,-22.78052 25.6737,-26.89316 4.7738,-1.52707 14.1691,-1.75471 19.5555,-0.47382 13.4798,3.20548 24.2675,13.81253 27.833,27.36698 1.3211,5.02222 1.3172,13.68223 -0.01,18.64268 -3.7651,14.08877 -14.8911,24.64595 -29.0279,27.54395 -4.0531,0.83087 -10.9692,0.85034 -15.0188,0.0423 z m 146.6667,-34.49468 c -7.4514,-1.45521 -14.412,-8.53603 -16.0266,-16.30336 -2.956,-14.221 9.4738,-27.27616 23.7916,-24.98854 7.8366,1.25208 14.1348,6.58705 16.6449,14.0992 1.2327,3.68927 1.2501,9.20773 0.041,13.07831 -3.2147,10.29307 -13.5296,16.24732 -24.4512,14.11439 z m -65.5556,-35.50056 c -8.3848,-1.85483 -14.9167,-8.28875 -16.6157,-16.36667 -1.5151,-7.20338 0.5672,-14.04901 5.8685,-19.29273 11.026,-10.90641 29.9707,-6.20625 34.5719,8.57726 1.0009,3.21607 1.1121,8.90897 0.2378,12.18179 -1.6921,6.33471 -6.8736,11.90278 -13.07,14.04513 -2.9164,1.00832 -8.3791,1.43332 -10.9925,0.85522 z"
       id="path2" /></g></svg>
